<svg xmlns="http://www.w3.org/2000/svg" viewBox="0 0 1600 700" preserveAspectRatio="xMidYMid slice" xmlns:c2pa="http://c2pa.org/manifest"><metadata><c2pa:manifest>AAAWgmp1bWIAAAAeanVtZGMycGEAEQAQgAAAqgA4m3EDYzJwYQAAABZcanVtYgAAAEdqdW1kYzJtYQARABCAAACqADibcQN1cm46YzJwYTpjY2M3ZjhlMy05MWNlLTQ1ZTItYTNhNi0xOTg0ZjI2OWRkNmYAAAADl2p1bWIAAAApanVtZGMyYXMAEQAQgAAAqgA4m3EDYzJwYS5hc3NlcnRpb25zAAAAALxqdW1iAAAARGp1bWRjYm9yABEAEIAAAKoAOJtxE2MycGEuaW5ncmVkaWVudC52MwAAAAAYYzJzaI3SA4etH4xVGpmNqrRVw6sAAABwY2JvcqNpZGM6Zm9ybWF0bWltYWdlL3N2Zyt4bWxqaW5zdGFuY2VJRHgseG1wOmlpZDpiOTUxNzEyYS0wNTNiLTRhOGEtOWI1Yi00NTU1NGUxMzliMjRscmVsYXRpb25zaGlwaHBhcmVudE9mAAAB4mp1bWIAAABBanVtZGNib3IAEQAQgAAAqgA4m3ETYzJwYS5hY3Rpb25zLnYyAAAAABhjMnNoCo1QbJJaXrSZhnlA9fHSwwAAAZljYm9yomdhY3Rpb25zgqJmYWN0aW9ua2MycGEub3BlbmVkanBhcmFtZXRlcnOha2luZ3JlZGllbnRzgaJjdXJseC1zZWxmI2p1bWJmPWMycGEuYXNzZXJ0aW9ucy9jMnBhLmluZ3JlZGllbnQudjNkaGFzaFggvR5R8GXfhXu9Px6J2/B98Mm+AoS0VJjAM4Y2eLJSPW+kZmFjdGlvbngdY29tLmFudGhyb3BpYy5jbGF1ZGUucHJvdmlkZWRqcGFyYW1ldGVyc6F4H2NvbS5hbnRocm9waWMub3JpZ2luLWNvbmZpZGVuY2VndW5rbm93bmtkZXNjcmlwdGlvbnhmQ2xhdWRlIHByb3ZpZGVkIHRoaXMgZmlsZSBhdCB0aGUgcmVxdWVzdCBvZiBhIHVzZXIgYW5kIG1heSBoYXZlIGNyZWF0ZWQgb3IgbW9kaWZpZWQgdGhlIGZpbGUgY29udGVudHMubXNvZnR3YXJlQWdlbnShZG5hbWVmQ2xhdWRlcmFsbEFjdGlvbnNJbmNsdWRlZPUAAADIanVtYgAAAEBqdW1kY2JvcgARABCAAACqADibcRNjMnBhLmhhc2guZGF0YQAAAAAYYzJzaBbs94RB8BVPDc0jmLRNNocAAACAY2JvcqVjYWxnZnNoYTI1NmNwYWRNAAAAAAAAAAAAAAAAAGRoYXNoWCC6JlDudSSsS1yEU8170tWyAOpYlvmc10mie922EoP3FmRuYW1lbmp1bWJmIG1hbmlmZXN0amV4Y2x1c2lvbnOBomVzdGFydBijZmxlbmd0aBkeBAAAAj5qdW1iAAAAJ2p1bWRjMmNsABEAEIAAAKoAOJtxA2MycGEuY2xhaW0udjIAAAACD2Nib3KlY2FsZ2ZzaGEyNTZpc2lnbmF0dXJleE1zZWxmI2p1bWJmPS9jMnBhL3VybjpjMnBhOmNjYzdmOGUzLTkxY2UtNDVlMi1hM2E2LTE5ODRmMjY5ZGQ2Zi9jMnBhLnNpZ25hdHVyZWppbnN0YW5jZUlEeCx4bXA6aWlkOmEwMDg5YjFiLTZkZTAtNGMyYy04NTg0LWViMzUxNzkxMGRhMHJjcmVhdGVkX2Fzc2VydGlvbnODomN1cmx4LXNlbGYjanVtYmY9YzJwYS5hc3NlcnRpb25zL2MycGEuaW5ncmVkaWVudC52M2RoYXNoWCC9HlHwZd+Fe70/Honb8H3wyb4ChLRUmMAzhjZ4slI9b6JjdXJseCpzZWxmI2p1bWJmPWMycGEuYXNzZXJ0aW9ucy9jMnBhLmFjdGlvbnMudjJkaGFzaFgg/iSsLX4L9b2QwXHcdeWdF6LdcJg3Pf7pCHIQg1rdn6aiY3VybHgpc2VsZiNqdW1iZj1jMnBhLmFzc2VydGlvbnMvYzJwYS5oYXNoLmRhdGFkaGFzaFggq/mvC8XcdsHJ9sXO9FMK5LOTGZQM8sMpwWNRF/eZ/E10Y2xhaW1fZ2VuZXJhdG9yX2luZm+jZG5hbWVvQW50aHJvcGljIEZpbGVzZ3ZlcnNpb25lMS4wLjBrc3BlY1ZlcnNpb25lMi40LjAAABA4anVtYgAAAChqdW1kYzJjcwARABCAAACqADibcQNjMnBhLnNpZ25hdHVyZQAAABAIY2JvctKEWQISogEmGCFZAgowggIGMIIBjaADAgECAhRA5aAK7sI50L64g/oGQgU9Z1UTADAKBggqhkjOPQQDAzBJMRcwFQYDVQQKEw5BbnRocm9waWMsIFBCQzEuMCwGA1UEAxMlQW50aHJvcGljIENvbnRlbnQgQ3JlZGVudGlhbHMgUm9vdCBDQTAeFw0yNjA4MDcxODQzNTZaFw0yODA4MDYxOTQzNTZaMEQxFzAVBgNVBAoTDkFudGhyb3BpYywgUEJDMSkwJwYDVQQDEyBBbnRocm9waWMgQ2xhdWRlIENvbnRlbnQgU2lnbmluZzBZMBMGByqGSM49AgEGCCqGSM49AwEHA0IABJh6CmvLUBgFFNU0vUKlOVtE6djd17L5SuwX0LemFisBM3dkd/3cyjxFA3Qo5S46fX0/ihY0VZ7mfb9KF703t5OjWDBWMA4GA1UdDwEB/wQEAwIHgDAVBgNVHSUEDjAMBgorBgEEAYPoXgIBMAwGA1UdEwEB/wQCMAAwHwYDVR0jBBgwFoAUzlHiBIFOZFsj+OPEz5o+nMHXXMIwCgYIKoZIzj0EAwMDZwAwZAIwMXMdFJ4BetLLVY7ORuE9noqbbAZOZn/aArXyTwFAZfKrPzxF2vPoJNf1+UCdg1XGAjBwX1zd9WGqYkqmL5SFqw1QySjr1zJfpJM9+1rdDwSPLMOPOjKuiXjoU/pUUeG9RwmhY3BhZFkNngAAAAAAAAAAAAAAAAAAAAAAAAAAAAAAAAAAAAAAAAAAAAAAAAAAAAAAAAAAAAAAAAAAAAAAAAAAAAAAAAAAAAAAAAAAAAAAAAAAAAAAAAAAAAAAAAAAAAAAAAAAAAAAAAAAAAAAAAAAAAAAAAAAAAAAAAAAAAAAAAAAAAAAAAAAAAAAAAAAAAAAAAAAAAAAAAAAAAAAAAAAAAAAAAAAAAAAAAAAAAAAAAAAAAAAAAAAAAAAAAAAAAAAAAAAAAAAAAAAAAAAAAAAAAAAAAAAAAAAAAAAAAAAAAAAAAAAAAAAAAAAAAAAAAAAAAAAAAAAAAAAAAAAAAAAAAAAAAAAAAAAAAAAAAAAAAAAAAAAAAAAAAAAAAAAAAAAAAAAAAAAAAAAAAAAAAAAAAAAAAAAAAAAAAAAAAAAAAAAAAAAAAAAAAAAAAAAAAAAAAAAAAAAAAAAAAAAAAAAAAAAAAAAAAAAAAAAAAAAAAAAAAAAAAAAAAAAAAAAAAAAAAAAAAAAAAAAAAAAAAAAAAAAAAAAAAAAAAAAAAAAAAAAAAAAAAAAAAAAAAAAAAAAAAAAAAAAAAAAAAAAAAAAAAAAAAAAAAAAAAAAAAAAAAAAAAAAAAAAAAAAAAAAAAAAAAAAAAAAAAAAAAAAAAAAAAAAAAAAAAAAAAAAAAAAAAAAAAAAAAAAAAAAAAAAAAAAAAAAAAAAAAAAAAAAAAAAAAAAAAAAAAAAAAAAAAAAAAAAAAAAAAAAAAAAAAAAAAAAAAAAAAAAAAAAAAAAAAAAAAAAAAAAAAAAAAAAAAAAAAAAAAAAAAAAAAAAAAAAAAAAAAAAAAAAAAAAAAAAAAAAAAAAAAAAAAAAAAAAAAAAAAAAAAAAAAAAAAAAAAAAAAAAAAAAAAAAAAAAAAAAAAAAAAAAAAAAAAAAAAAAAAAAAAAAAAAAAAAAAAAAAAAAAAAAAAAAAAAAAAAAAAAAAAAAAAAAAAAAAAAAAAAAAAAAAAAAAAAAAAAAAAAAAAAAAAAAAAAAAAAAAAAAAAAAAAAAAAAAAAAAAAAAAAAAAAAAAAAAAAAAAAAAAAAAAAAAAAAAAAAAAAAAAAAAAAAAAAAAAAAAAAAAAAAAAAAAAAAAAAAAAAAAAAAAAAAAAAAAAAAAAAAAAAAAAAAAAAAAAAAAAAAAAAAAAAAAAAAAAAAAAAAAAAAAAAAAAAAAAAAAAAAAAAAAAAAAAAAAAAAAAAAAAAAAAAAAAAAAAAAAAAAAAAAAAAAAAAAAAAAAAAAAAAAAAAAAAAAAAAAAAAAAAAAAAAAAAAAAAAAAAAAAAAAAAAAAAAAAAAAAAAAAAAAAAAAAAAAAAAAAAAAAAAAAAAAAAAAAAAAAAAAAAAAAAAAAAAAAAAAAAAAAAAAAAAAAAAAAAAAAAAAAAAAAAAAAAAAAAAAAAAAAAAAAAAAAAAAAAAAAAAAAAAAAAAAAAAAAAAAAAAAAAAAAAAAAAAAAAAAAAAAAAAAAAAAAAAAAAAAAAAAAAAAAAAAAAAAAAAAAAAAAAAAAAAAAAAAAAAAAAAAAAAAAAAAAAAAAAAAAAAAAAAAAAAAAAAAAAAAAAAAAAAAAAAAAAAAAAAAAAAAAAAAAAAAAAAAAAAAAAAAAAAAAAAAAAAAAAAAAAAAAAAAAAAAAAAAAAAAAAAAAAAAAAAAAAAAAAAAAAAAAAAAAAAAAAAAAAAAAAAAAAAAAAAAAAAAAAAAAAAAAAAAAAAAAAAAAAAAAAAAAAAAAAAAAAAAAAAAAAAAAAAAAAAAAAAAAAAAAAAAAAAAAAAAAAAAAAAAAAAAAAAAAAAAAAAAAAAAAAAAAAAAAAAAAAAAAAAAAAAAAAAAAAAAAAAAAAAAAAAAAAAAAAAAAAAAAAAAAAAAAAAAAAAAAAAAAAAAAAAAAAAAAAAAAAAAAAAAAAAAAAAAAAAAAAAAAAAAAAAAAAAAAAAAAAAAAAAAAAAAAAAAAAAAAAAAAAAAAAAAAAAAAAAAAAAAAAAAAAAAAAAAAAAAAAAAAAAAAAAAAAAAAAAAAAAAAAAAAAAAAAAAAAAAAAAAAAAAAAAAAAAAAAAAAAAAAAAAAAAAAAAAAAAAAAAAAAAAAAAAAAAAAAAAAAAAAAAAAAAAAAAAAAAAAAAAAAAAAAAAAAAAAAAAAAAAAAAAAAAAAAAAAAAAAAAAAAAAAAAAAAAAAAAAAAAAAAAAAAAAAAAAAAAAAAAAAAAAAAAAAAAAAAAAAAAAAAAAAAAAAAAAAAAAAAAAAAAAAAAAAAAAAAAAAAAAAAAAAAAAAAAAAAAAAAAAAAAAAAAAAAAAAAAAAAAAAAAAAAAAAAAAAAAAAAAAAAAAAAAAAAAAAAAAAAAAAAAAAAAAAAAAAAAAAAAAAAAAAAAAAAAAAAAAAAAAAAAAAAAAAAAAAAAAAAAAAAAAAAAAAAAAAAAAAAAAAAAAAAAAAAAAAAAAAAAAAAAAAAAAAAAAAAAAAAAAAAAAAAAAAAAAAAAAAAAAAAAAAAAAAAAAAAAAAAAAAAAAAAAAAAAAAAAAAAAAAAAAAAAAAAAAAAAAAAAAAAAAAAAAAAAAAAAAAAAAAAAAAAAAAAAAAAAAAAAAAAAAAAAAAAAAAAAAAAAAAAAAAAAAAAAAAAAAAAAAAAAAAAAAAAAAAAAAAAAAAAAAAAAAAAAAAAAAAAAAAAAAAAAAAAAAAAAAAAAAAAAAAAAAAAAAAAAAAAAAAAAAAAAAAAAAAAAAAAAAAAAAAAAAAAAAAAAAAAAAAAAAAAAAAAAAAAAAAAAAAAAAAAAAAAAAAAAAAAAAAAAAAAAAAAAAAAAAAAAAAAAAAAAAAAAAAAAAAAAAAAAAAAAAAAAAAAAAAAAAAAAAAAAAAAAAAAAAAAAAAAAAAAAAAAAAAAAAAAAAAAAAAAAAAAAAAAAAAAAAAAAAAAAAAAAAAAAAAAAAAAAAAAAAAAAAAAAAAAAAAAAAAAAAAAAAAAAAAAAAAAAAAAAAAAAAAAAAAAAAAAAAAAAAAAAAAAAAAAAAAAAAAAAAAAAAAAAAAAAAAAAAAAAAAAAAAAAAAAAAAAAAAAAAAAAAAAAAAAAAAAAAAAAAAAAAAAAAAAAAAAAAAAAAAAAAAAAAAAAAAAAAAAAAAAAAAAAAAAAAAAAAAAAAAAAAAAAAAAAAAAAAAAAAAAAAAAAAAAAAAAAAAAAAAAAAAAAAAAAAAAAAAAAAAAAAAAAAAAAAAAAAAAAAAAAAAAAAAAAAAAAAAAAAAAAAAAAAAAAAAAAAAAAAAAAAAAAAAAAAAAAAAAAAAAAAAAAAAAAAAAAAAAAAAAAAAAAAAAAAAAAAAAAAAAAAAAAAAAAAAAAAAAAAAAAAAAAAAAAAAAAAAAAAAAAAAAAAAAAAAAAAAAAAAAAAAAAAAAAAAAAAAAAAAAAAAAAAAAAAAAAAAAAAAAAAAAAAAAAAAAAAAAAAAAAAAAAAAAAAAAAAAAAAAAAAAAAAAAAAAAAAAAAAAAAAAAAAAAAAAAAAAAAAAAAAAAAAAAAAAAAAAAAAAAAAAAAAAAAAAAAAAAAAAAAAAAAAAAAAAAAAAAAAAAAAAAAAAAAAAAAAAAAAAAAAAAAAAAAAAAAAAAAAAAAAAAAAAAAAAAAAAAAAAAAAAAAAAAAAAAAAAAAAAAAAAAAAAAAAAAAAAAAAAAAAAAAAAAAAAAAAAAAAAAAAAAAAAAAAAAAAAAAAAAAAAAAAAAAAAAAAAAAAAAAAAAAAAAAAAAAAAAAAAAAAAAAAAAAAAAAAAAAAAAAAAAAAAAAAAAAAAAAAAAAAAAAAAAAAAAAAAAAAAAAAAAAAAAAAAAAAAAAAAAAAAAAAAAAAAAAAAAAAAAAAAAAAAAAAAAAAAAAAAAAAAAAAAAAAAAAAAAAAAAAAAAAAAAAAAAAAAAAAAAAAAAAAAAAAAAAAAAAAAAAAAAAAAAAAAAAAAAAAAAAAAAAAAAAAAAAAAAAAAAAAAAAAAAAAAAAAAAAAAAAAAAAAAAAAAAAAAAAAAAAAAAAAAAAAAAAAAAAAAAAAAAAAAAAAAAAAAAAAAAAAAAAAAAAAAAAAAAAAAAAAAAAAAAAAAAAAAAAAAAAAAAAAAAAAAAAAAAAAAAAAAAAAAAAAAAAAAAAAAAAAAAAAAAAAAAAAAAAAAAAAAAAAAAAAAAAAAAAAAAAAAAAAAAAAAAAAAAAAAAAAAAAAAAAAAAAAAAAAAAAAAAAAAAAAAAAAAAAAAAAAAAAAAAAAAAAAAAAAAAAAAAAAAAAAAAAAAAAAAAAAAAAAAAAAAAAAAAAAAAAAAAAAAAAAAAAAAAAAAAAAAAAAAAAAAAAAAAAAAAAAAAAAAAAAAAAAAAAAAAAAAAAAAAAAAAAAAAAAAAAAAAAAAAAAAAAAAAAAAAAAAAAAAAAAAAAAAAAAAAAAAAAAAAAAAAAAAAAAAAAAAAAAAAAAAAAAAAAAAAAAAAAAAAAAAAAAAAAAAAAAAAAAAAAAAAAAAAAAAAAAAAAAAAAAAAAAAAAAAAAAAAAAAAAAAAAAAAAAAAAAAAAAAAAAAAAAAAAAAAAAAAAAAAAAAAAAAAAAAAAAAAAAAAAAAAAAAAAAAAAAAAAAAAAAAAAAAAAAAAAAAAAAAAAAAAAAAAAAAAAAAAAAAAAAAAAAAAAAAAPZYQGBO8cy4KQ/EXP3Md9lDVtatR6Q5kkcIvj8xm96DGsNwxtid8OwKojFo+P539jw/lIh9QySQO4YJi7EQc0JYkEU=</c2pa:manifest></metadata><line x1="0" x2="1600" y1="100" y2="100" stroke="#fff" stroke-opacity=".06"/><line x1="0" x2="1600" y1="200" y2="200" stroke="#fff" stroke-opacity=".06"/><line x1="0" x2="1600" y1="300" y2="300" stroke="#fff" stroke-opacity=".06"/><line x1="0" x2="1600" y1="400" y2="400" stroke="#fff" stroke-opacity=".06"/><line x1="0" x2="1600" y1="500" y2="500" stroke="#fff" stroke-opacity=".06"/><line x1="0" x2="1600" y1="600" y2="600" stroke="#fff" stroke-opacity=".06"/><polyline points="16.666666666666668,302.40328707508894 50,287.4363424829376 83.33333333333334,279.5950812930218 116.66666666666667,284.5660975881694 150,305.9715429553629 183.33333333333334,320.8456241561312 216.66666666666666,334.28019747318706 250,355.1247366645954 283.33333333333337,382.91483067819604 316.6666666666667,389.960794843715 350.00000000000006,384.6955436493715 383.33333333333337,377.0306394065873 416.6666666666667,375.13883791935575 450.00000000000006,380.98107962411876 483.33333333333337,356.89844794985765 516.6666666666667,359.82651878829415 550,386.7647048292517 583.3333333333334,379.8120461312178 616.6666666666666,383.1033374398496 650,372.51897779224385 683.3333333333334,364.8732765734536 716.6666666666666,351.2671118615507 750,375.4478048951587 783.3333333333334,378.8224164843663 816.6666666666666,407.5967726053654 850,395.06401908484463 883.3333333333334,387.3000092026311 916.6666666666667,412.353466954433 950,389.417262291823 983.3333333333334,366.4903016390698 1016.6666666666667,376.83215058112137 1050.0000000000002,384.8071055227922 1083.3333333333335,410.2810291539322 1116.6666666666667,437.1467676955957 1150.0000000000002,410.1759637231825 1183.3333333333335,382.67098427446126 1216.6666666666667,399.539917555237 1250.0000000000002,386.2228309375339 1283.3333333333335,381.0595333018616 1316.6666666666667,382.8151695359568 1350.0000000000002,393.43111093073657 1383.3333333333335,419.83428151692914 1416.6666666666667,426.1511472596558 1450.0000000000002,411.9177526073146 1483.3333333333335,387.45847762723366 1516.6666666666667,402.70311921904926 1550.0000000000002,381.72150095148066 1583.3333333333335,395.39320806031714" fill="none" stroke="#7b8cff" stroke-width="2.5" stroke-opacity=".6"/><line x1="16.666666666666668" x2="16.666666666666668" y1="293.72616941413196" y2="357.6229355100649" stroke="#ff5c7a" stroke-width="2"/><rect x="7.666666666666668" y="302.40328707508894" width="18" height="27.59671292491106" rx="2" fill="#ff5c7a"/><line x1="50" x2="50" y1="271.45491335403864" y2="324.28440693164447" stroke="#ff5c7a" stroke-width="2"/><rect x="41" y="287.4363424829376" width="18" height="14.966944592151322" rx="2" fill="#ff5c7a"/><line x1="83.33333333333334" x2="83.33333333333334" y1="256.94283606733325" y2="309.9979330252846" stroke="#ff5c7a" stroke-width="2"/><rect x="74.33333333333334" y="279.5950812930218" width="18" height="7.841261189915826" rx="2" fill="#ff5c7a"/><line x1="116.66666666666667" x2="116.66666666666667" y1="260.51764315875135" y2="305.10153386103985" stroke="#26d39b" stroke-width="2"/><rect x="107.66666666666667" y="279.5950812930218" width="18" height="6" rx="2" fill="#26d39b"/><line x1="150" x2="150" y1="273.3391542288191" y2="313.2316861661298" stroke="#26d39b" stroke-width="2"/><rect x="141" y="284.5660975881694" width="18" height="21.405445367193522" rx="2" fill="#26d39b"/><line x1="183.33333333333334" x2="183.33333333333334" y1="304.35492385102197" y2="341.7869948123521" stroke="#26d39b" stroke-width="2"/><rect x="174.33333333333334" y="305.9715429553629" width="18" height="14.874081200768273" rx="2" fill="#26d39b"/><line x1="216.66666666666666" x2="216.66666666666666" y1="293.1735695199917" y2="348.3170673520849" stroke="#26d39b" stroke-width="2"/><rect x="207.66666666666666" y="320.8456241561312" width="18" height="13.434573317055879" rx="2" fill="#26d39b"/><line x1="250" x2="250" y1="318.88853358034436" y2="358.8098316645295" stroke="#26d39b" stroke-width="2"/><rect x="241" y="334.28019747318706" width="18" height="20.84453919140833" rx="2" fill="#26d39b"/><line x1="283.33333333333337" x2="283.33333333333337" y1="335.81210960550794" y2="403.5698739712917" stroke="#26d39b" stroke-width="2"/><rect x="274.33333333333337" y="355.1247366645954" width="18" height="27.79009401360065" rx="2" fill="#26d39b"/><line x1="316.6666666666667" x2="316.6666666666667" y1="355.66480584482883" y2="417.3206597824211" stroke="#26d39b" stroke-width="2"/><rect x="307.6666666666667" y="382.91483067819604" width="18" height="7.045964165518967" rx="2" fill="#26d39b"/><line x1="350.00000000000006" x2="350.00000000000006" y1="359.58041497989575" y2="400.02238317766336" stroke="#ff5c7a" stroke-width="2"/><rect x="341.00000000000006" y="384.6955436493715" width="18" height="6" rx="2" fill="#ff5c7a"/><line x1="383.33333333333337" x2="383.33333333333337" y1="368.10145191927506" y2="389.27273941229686" stroke="#ff5c7a" stroke-width="2"/><rect x="374.33333333333337" y="377.0306394065873" width="18" height="7.664904242784189" rx="2" fill="#ff5c7a"/><line x1="416.6666666666667" x2="416.6666666666667" y1="347.02098695720593" y2="385.8768414563857" stroke="#ff5c7a" stroke-width="2"/><rect x="407.6666666666667" y="375.13883791935575" width="18" height="6" rx="2" fill="#ff5c7a"/><line x1="450.00000000000006" x2="450.00000000000006" y1="348.8032778143898" y2="402.8592456002064" stroke="#26d39b" stroke-width="2"/><rect x="441.00000000000006" y="375.13883791935575" width="18" height="6" rx="2" fill="#26d39b"/><line x1="483.33333333333337" x2="483.33333333333337" y1="340.07954725161176" y2="389.1858049707421" stroke="#ff5c7a" stroke-width="2"/><rect x="474.33333333333337" y="356.89844794985765" width="18" height="24.08263167426111" rx="2" fill="#ff5c7a"/><line x1="516.6666666666667" x2="516.6666666666667" y1="351.10995094902347" y2="372.4698095895675" stroke="#26d39b" stroke-width="2"/><rect x="507.66666666666674" y="356.89844794985765" width="18" height="6" rx="2" fill="#26d39b"/><line x1="550" x2="550" y1="348.8626154342958" y2="388.41110001598065" stroke="#26d39b" stroke-width="2"/><rect x="541" y="359.82651878829415" width="18" height="26.938186040957532" rx="2" fill="#26d39b"/><line x1="583.3333333333334" x2="583.3333333333334" y1="352.081609667503" y2="406.6973359018086" stroke="#ff5c7a" stroke-width="2"/><rect x="574.3333333333334" y="379.8120461312178" width="18" height="6.952658698033872" rx="2" fill="#ff5c7a"/><line x1="616.6666666666666" x2="616.6666666666666" y1="367.64339569864944" y2="388.0698495271009" stroke="#26d39b" stroke-width="2"/><rect x="607.6666666666666" y="379.8120461312178" width="18" height="6" rx="2" fill="#26d39b"/><line x1="650" x2="650" y1="359.80046900725006" y2="394.03703878505013" stroke="#ff5c7a" stroke-width="2"/><rect x="641" y="372.51897779224385" width="18" height="10.584359647605766" rx="2" fill="#ff5c7a"/><line x1="683.3333333333334" x2="683.3333333333334" y1="346.45196420850783" y2="388.4687856884993" stroke="#ff5c7a" stroke-width="2"/><rect x="674.3333333333334" y="364.8732765734536" width="18" height="7.6457012187902365" rx="2" fill="#ff5c7a"/><line x1="716.6666666666666" x2="716.6666666666666" y1="337.5320080151464" y2="392.0681200972143" stroke="#ff5c7a" stroke-width="2"/><rect x="707.6666666666666" y="351.2671118615507" width="18" height="13.60616471190292" rx="2" fill="#ff5c7a"/><line x1="750" x2="750" y1="332.236619369982" y2="394.5017128199812" stroke="#26d39b" stroke-width="2"/><rect x="741" y="351.2671118615507" width="18" height="24.18069303360801" rx="2" fill="#26d39b"/><line x1="783.3333333333334" x2="783.3333333333334" y1="354.777953810607" y2="393.97090639042233" stroke="#26d39b" stroke-width="2"/><rect x="774.3333333333334" y="375.4478048951587" width="18" height="6" rx="2" fill="#26d39b"/><line x1="816.6666666666666" x2="816.6666666666666" y1="357.57546380850266" y2="419.4984354216131" stroke="#26d39b" stroke-width="2"/><rect x="807.6666666666666" y="378.8224164843663" width="18" height="28.77435612099913" rx="2" fill="#26d39b"/><line x1="850" x2="850" y1="384.5463825051422" y2="425.2025629092019" stroke="#ff5c7a" stroke-width="2"/><rect x="841" y="395.06401908484463" width="18" height="12.532753520520771" rx="2" fill="#ff5c7a"/><line x1="883.3333333333334" x2="883.3333333333334" y1="363.45837614920833" y2="406.8069739032568" stroke="#ff5c7a" stroke-width="2"/><rect x="874.3333333333334" y="387.3000092026311" width="18" height="7.764009882213543" rx="2" fill="#ff5c7a"/><line x1="916.6666666666667" x2="916.6666666666667" y1="362.72439595233845" y2="415.6856842218365" stroke="#26d39b" stroke-width="2"/><rect x="907.6666666666667" y="387.3000092026311" width="18" height="25.053457751801886" rx="2" fill="#26d39b"/><line x1="950" x2="950" y1="384.8101142868445" y2="424.55758471179627" stroke="#ff5c7a" stroke-width="2"/><rect x="941" y="389.417262291823" width="18" height="22.936204662609953" rx="2" fill="#ff5c7a"/><line x1="983.3333333333334" x2="983.3333333333334" y1="359.89013677178406" y2="419.3034168800819" stroke="#ff5c7a" stroke-width="2"/><rect x="974.3333333333334" y="366.4903016390698" width="18" height="22.926960652753223" rx="2" fill="#ff5c7a"/><line x1="1016.6666666666667" x2="1016.6666666666667" y1="352.7770995519947" y2="381.1597351115008" stroke="#26d39b" stroke-width="2"/><rect x="1007.6666666666667" y="366.4903016390698" width="18" height="10.34184894205157" rx="2" fill="#26d39b"/><line x1="1050.0000000000002" x2="1050.0000000000002" y1="349.1760229579991" y2="388.94095785382234" stroke="#26d39b" stroke-width="2"/><rect x="1041.0000000000002" y="376.83215058112137" width="18" height="7.9749549416708305" rx="2" fill="#26d39b"/><line x1="1083.3333333333335" x2="1083.3333333333335" y1="358.2504783514189" y2="436.9982634388832" stroke="#26d39b" stroke-width="2"/><rect x="1074.3333333333335" y="384.8071055227922" width="18" height="25.473923631139996" rx="2" fill="#26d39b"/><line x1="1116.6666666666667" x2="1116.6666666666667" y1="402.0183817690322" y2="459.9806025648398" stroke="#26d39b" stroke-width="2"/><rect x="1107.6666666666667" y="410.2810291539322" width="18" height="26.865738541663518" rx="2" fill="#26d39b"/><line x1="1150.0000000000002" x2="1150.0000000000002" y1="407.8947685360417" y2="444.59558552121524" stroke="#ff5c7a" stroke-width="2"/><rect x="1141.0000000000002" y="410.1759637231825" width="18" height="26.970803972413194" rx="2" fill="#ff5c7a"/><line x1="1183.3333333333335" x2="1183.3333333333335" y1="375.7296958549551" y2="428.68116639399943" stroke="#ff5c7a" stroke-width="2"/><rect x="1174.3333333333335" y="382.67098427446126" width="18" height="27.504979448721258" rx="2" fill="#ff5c7a"/><line x1="1216.6666666666667" x2="1216.6666666666667" y1="362.0452246828214" y2="414.2207425543202" stroke="#26d39b" stroke-width="2"/><rect x="1207.6666666666667" y="382.67098427446126" width="18" height="16.868933280775764" rx="2" fill="#26d39b"/><line x1="1250.0000000000002" x2="1250.0000000000002" y1="379.16795985101146" y2="426.0025256870325" stroke="#ff5c7a" stroke-width="2"/><rect x="1241.0000000000002" y="386.2228309375339" width="18" height="13.317086617703126" rx="2" fill="#ff5c7a"/><line x1="1283.3333333333335" x2="1283.3333333333335" y1="377.5083535661493" y2="413.05114956547084" stroke="#ff5c7a" stroke-width="2"/><rect x="1274.3333333333335" y="381.0595333018616" width="18" height="6" rx="2" fill="#ff5c7a"/><line x1="1316.6666666666667" x2="1316.6666666666667" y1="353.6698083080675" y2="382.9042627545558" stroke="#26d39b" stroke-width="2"/><rect x="1307.6666666666667" y="381.0595333018616" width="18" height="6" rx="2" fill="#26d39b"/><line x1="1350.0000000000002" x2="1350.0000000000002" y1="382.1852533352492" y2="421.09462196281845" stroke="#26d39b" stroke-width="2"/><rect x="1341.0000000000002" y="382.8151695359568" width="18" height="10.615941394779782" rx="2" fill="#26d39b"/><line x1="1383.3333333333335" x2="1383.3333333333335" y1="364.36899642887" y2="425.47830258639436" stroke="#26d39b" stroke-width="2"/><rect x="1374.3333333333335" y="393.43111093073657" width="18" height="26.403170586192573" rx="2" fill="#26d39b"/><line x1="1416.6666666666667" x2="1416.6666666666667" y1="411.8461406647441" y2="446.5324162630979" stroke="#26d39b" stroke-width="2"/><rect x="1407.6666666666667" y="419.83428151692914" width="18" height="6.316865742726634" rx="2" fill="#26d39b"/><line x1="1450.0000000000002" x2="1450.0000000000002" y1="394.9854285540921" y2="432.4191863102926" stroke="#ff5c7a" stroke-width="2"/><rect x="1441.0000000000002" y="411.9177526073146" width="18" height="14.23339465234119" rx="2" fill="#ff5c7a"/><line x1="1483.3333333333335" x2="1483.3333333333335" y1="366.43738984709466" y2="435.00045749740684" stroke="#ff5c7a" stroke-width="2"/><rect x="1474.3333333333335" y="387.45847762723366" width="18" height="24.45927498008092" rx="2" fill="#ff5c7a"/><line x1="1516.6666666666667" x2="1516.6666666666667" y1="386.4765469322336" y2="417.648736041248" stroke="#26d39b" stroke-width="2"/><rect x="1507.6666666666667" y="387.45847762723366" width="18" height="15.244641591815594" rx="2" fill="#26d39b"/><line x1="1550.0000000000002" x2="1550.0000000000002" y1="377.7986928445279" y2="430.2740077064716" stroke="#ff5c7a" stroke-width="2"/><rect x="1541.0000000000002" y="381.72150095148066" width="18" height="20.981618267568592" rx="2" fill="#ff5c7a"/><line x1="1583.3333333333335" x2="1583.3333333333335" y1="380.60967289945546" y2="422.18389716771594" stroke="#26d39b" stroke-width="2"/><rect x="1574.3333333333335" y="381.72150095148066" width="18" height="13.671707108836472" rx="2" fill="#26d39b"/></svg>